<mxfile host="app.diagrams.net" modified="2022-12-05T13:47:27.656Z" agent="5.0 (Macintosh; Intel Mac OS X 10_15_7) AppleWebKit/537.36 (KHTML, like Gecko) Chrome/107.0.0.0 Safari/537.36" version="20.6.0" etag="vDMYvS8wxw7PoaSrZ7ji" type="github">
  <diagram id="GQswBAs9rWUTwK8a14QV" name="第 1 页">
    <mxGraphModel dx="1018" dy="659" grid="0" gridSize="10" guides="1" tooltips="1" connect="1" arrows="1" fold="1" page="1" pageScale="1" pageWidth="3300" pageHeight="4681" math="0" shadow="0">
      <root>
        <mxCell id="0" />
        <mxCell id="1" parent="0" />
        <mxCell id="OjtDRb3r2wVRJjBGD-eC-1" value="&lt;font style=&quot;font-size: 15px;&quot;&gt;StorageManager::Initialize( )&lt;/font&gt;" style="rounded=0;whiteSpace=wrap;html=1;" vertex="1" parent="1">
          <mxGeometry x="134" y="159" width="363" height="51" as="geometry" />
        </mxCell>
        <mxCell id="OjtDRb3r2wVRJjBGD-eC-2" value="" style="rounded=0;whiteSpace=wrap;html=1;fontSize=15;" vertex="1" parent="1">
          <mxGeometry x="134" y="210" width="363" height="175" as="geometry" />
        </mxCell>
      </root>
    </mxGraphModel>
  </diagram>
</mxfile>
